<svg width="17" height="19" viewBox="0 0 17 19" fill="none" xmlns="http://www.w3.org/2000/svg">
<g clip-path="url(#clip0_1_120)">
<path d="M15.1154 17.0162C15.1154 17.9042 14.4308 18.6162 13.5769 18.6162C12.7231 18.6162 12.0385 17.8962 12.0385 17.0162C12.0385 16.1282 12.7231 15.4162 13.5769 15.4162C14.4308 15.4162 15.1154 16.1362 15.1154 17.0162ZM5.88461 15.4162C5.03076 15.4162 4.34615 16.1282 4.34615 17.0162C4.34615 17.8962 5.03076 18.6162 5.88461 18.6162C6.73846 18.6162 7.42307 17.9042 7.42307 17.0162C7.42307 16.1282 6.73846 15.4162 5.88461 15.4162ZM6.03846 12.7202L6.01538 12.8162C6.01538 12.9282 6.1 13.0162 6.20769 13.0162H15.1154V14.6162H5.88461C5.03076 14.6162 4.34615 13.8962 4.34615 13.0162C4.34615 12.7362 4.41538 12.4722 4.53076 12.2482L5.57692 10.2882L2.80769 4.21621H1.26923V2.61621H3.78461L4.50769 4.21621H15.8846C16.3077 4.21621 16.6538 4.57621 16.6538 5.01621C16.6538 5.15221 16.6154 5.28821 16.5615 5.41621L13.8077 10.5922C13.5461 11.0802 13.0385 11.4162 12.4615 11.4162H6.73076L6.03846 12.7202ZM7.03846 9.81621H8.1923V8.21621H6.31538L7.03846 9.81621ZM8.96153 8.21621V9.81621H11.2692V8.21621H8.96153ZM11.2692 7.41621V5.81621H8.96153V7.41621H11.2692ZM13.6615 8.21621H12.0385V9.81621H12.8077L13.6615 8.21621ZM14.9461 5.81621H12.0385V7.41621H14.0923L14.9461 5.81621ZM5.22307 5.81621L5.94615 7.41621H8.1923V5.81621H5.22307Z" fill="#1F2D35"/>
</g>
<defs>
<clipPath id="clip0_1_120">
<rect width="16" height="18" fill="white" transform="translate(0.5 0.899414)"/>
</clipPath>
</defs>
</svg>
