<svg width="23" height="22" viewBox="0 0 23 22" fill="none" xmlns="http://www.w3.org/2000/svg">
<path d="M11.5 0C5.44999 0 0.5 4.95884 0.5 11.0663C0.5 16.5884 4.52599 21.1717 9.78399 22V14.2691H6.98999V11.0663H9.78399V8.6255C9.78399 5.85342 11.423 4.32932 13.942 4.32932C15.141 4.32932 16.395 4.53916 16.395 4.53916V7.26707H15.009C13.645 7.26707 13.216 8.11747 13.216 8.98996V11.0663H16.274L15.779 14.2691H13.216V22C15.8081 21.589 18.1684 20.2611 19.8709 18.2561C21.5734 16.2511 22.5059 13.701 22.5 11.0663C22.5 4.95884 17.55 0 11.5 0Z" fill="#1F2D35"/>
</svg>
