<svg width="23" height="22" viewBox="0 0 23 22" fill="none" xmlns="http://www.w3.org/2000/svg">
<path d="M6.88 0H16.12C19.64 0 22.5 2.86 22.5 6.38V15.62C22.5 17.3121 21.8278 18.9349 20.6313 20.1313C19.4349 21.3278 17.8121 22 16.12 22H6.88C3.36 22 0.5 19.14 0.5 15.62V6.38C0.5 4.68792 1.17218 3.06514 2.36866 1.86866C3.56514 0.672177 5.18792 0 6.88 0ZM6.66 2.2C5.60974 2.2 4.6025 2.61721 3.85986 3.35986C3.11721 4.1025 2.7 5.10974 2.7 6.16V15.84C2.7 18.029 4.471 19.8 6.66 19.8H16.34C17.3903 19.8 18.3975 19.3828 19.1401 18.6401C19.8828 17.8975 20.3 16.8903 20.3 15.84V6.16C20.3 3.971 18.529 2.2 16.34 2.2H6.66ZM17.275 3.85C17.6397 3.85 17.9894 3.99487 18.2473 4.25273C18.5051 4.51059 18.65 4.86033 18.65 5.225C18.65 5.58967 18.5051 5.93941 18.2473 6.19727C17.9894 6.45513 17.6397 6.6 17.275 6.6C16.9103 6.6 16.5606 6.45513 16.3027 6.19727C16.0449 5.93941 15.9 5.58967 15.9 5.225C15.9 4.86033 16.0449 4.51059 16.3027 4.25273C16.5606 3.99487 16.9103 3.85 17.275 3.85ZM11.5 5.5C12.9587 5.5 14.3576 6.07946 15.3891 7.11091C16.4205 8.14236 17 9.54131 17 11C17 12.4587 16.4205 13.8576 15.3891 14.8891C14.3576 15.9205 12.9587 16.5 11.5 16.5C10.0413 16.5 8.64236 15.9205 7.61091 14.8891C6.57946 13.8576 6 12.4587 6 11C6 9.54131 6.57946 8.14236 7.61091 7.11091C8.64236 6.07946 10.0413 5.5 11.5 5.5ZM11.5 7.7C10.6248 7.7 9.78542 8.04768 9.16655 8.66655C8.54768 9.28542 8.2 10.1248 8.2 11C8.2 11.8752 8.54768 12.7146 9.16655 13.3335C9.78542 13.9523 10.6248 14.3 11.5 14.3C12.3752 14.3 13.2146 13.9523 13.8335 13.3335C14.4523 12.7146 14.8 11.8752 14.8 11C14.8 10.1248 14.4523 9.28542 13.8335 8.66655C13.2146 8.04768 12.3752 7.7 11.5 7.7Z" fill="#1F2D35"/>
</svg>
