<svg width="23" height="22" viewBox="0 0 23 22" fill="none" xmlns="http://www.w3.org/2000/svg">
<path d="M14.877 0H8.123C1.963 0 0.5 1.463 0.5 7.623V14.377C0.5 20.537 1.963 22 8.123 22H14.877C21.037 22 22.5 20.537 22.5 14.377V7.623C22.5 1.463 21.037 0 14.877 0ZM18.265 15.697H16.659C16.054 15.697 15.867 15.202 14.8 14.113C13.832 13.2 13.414 13.068 13.183 13.068C12.864 13.068 12.765 13.156 12.765 13.618V15.059C12.765 15.444 12.644 15.686 11.621 15.686C9.927 15.686 8.046 14.652 6.726 12.749C4.735 9.955 4.196 7.843 4.196 7.425C4.196 7.194 4.273 6.974 4.735 6.974H6.352C6.759 6.974 6.913 7.15 7.067 7.59C7.859 9.9 9.179 11.88 9.718 11.88C9.927 11.88 10.015 11.781 10.015 11.275V8.91C9.96 7.832 9.377 7.733 9.377 7.348C9.377 7.15 9.531 6.974 9.784 6.974H12.303C12.644 6.974 12.765 7.15 12.765 7.568V10.747C12.765 11.088 12.908 11.209 13.018 11.209C13.216 11.209 13.392 11.088 13.755 10.714C14.91 9.427 15.735 7.436 15.735 7.436C15.845 7.205 16.021 6.985 16.45 6.985H18.023C18.507 6.985 18.617 7.238 18.507 7.579C18.309 8.514 16.351 11.275 16.373 11.275C16.197 11.55 16.131 11.671 16.373 11.99C16.538 12.221 17.099 12.705 17.473 13.134C18.155 13.915 18.683 14.564 18.826 15.015C18.947 15.466 18.727 15.697 18.265 15.697Z" fill="#1F2D35"/>
</svg>
