<svg width="23" height="22" viewBox="0 0 23 22" fill="none" xmlns="http://www.w3.org/2000/svg">
<path d="M11.5442 0C5.50804 0 0.588442 4.895 0.588442 10.901C0.588442 12.826 1.09698 14.696 2.04774 16.346L0.5 22L6.30402 20.482C7.90703 21.351 9.70904 21.813 11.5442 21.813C17.5804 21.813 22.5 16.918 22.5 10.912C22.5 7.997 21.3613 5.258 19.294 3.201C17.2266 1.133 14.4739 0 11.5442 0ZM11.5553 1.837C13.9874 1.837 16.2648 2.783 17.9894 4.499C19.703 6.215 20.6538 8.492 20.6538 10.912C20.6538 15.906 16.5633 19.965 11.5442 19.965C9.90804 19.965 8.30502 19.536 6.91206 18.7L6.5804 18.513L3.13116 19.415L4.04874 16.071L3.82764 15.719C2.92111 14.3 2.43467 12.617 2.43467 10.901C2.44573 5.907 6.52512 1.837 11.5553 1.837ZM7.66382 5.863C7.48693 5.863 7.18844 5.929 6.93417 6.204C6.69095 6.479 5.97236 7.15 5.97236 8.481C5.97236 9.823 6.95628 11.11 7.07789 11.297C7.23266 11.484 9.02362 14.234 11.7764 15.4C12.4286 15.697 12.9372 15.862 13.3352 15.983C13.9874 16.192 14.5844 16.159 15.0598 16.093C15.5905 16.016 16.6739 15.433 16.906 14.795C17.1382 14.157 17.1382 13.618 17.0719 13.497C16.9945 13.387 16.8176 13.321 16.5412 13.2C16.2648 13.046 14.9161 12.386 14.6729 12.298C14.4186 12.21 14.2638 12.166 14.0538 12.43C13.8769 12.705 13.3462 13.321 13.1915 13.497C13.0256 13.684 12.8709 13.706 12.6055 13.574C12.3181 13.431 11.4337 13.145 10.3945 12.221C9.57638 11.495 9.03467 10.604 8.86884 10.329C8.73618 10.065 8.85779 9.9 8.99045 9.779C9.11206 9.658 9.28894 9.46 9.3995 9.295C9.54322 9.141 9.58744 9.02 9.67588 8.844C9.76432 8.657 9.7201 8.503 9.65377 8.371C9.58744 8.25 9.03467 6.886 8.80251 6.347C8.58141 5.819 8.3603 5.885 8.18342 5.874C8.02864 5.874 7.85176 5.863 7.66382 5.863Z" fill="#1F2D35"/>
</svg>
